<svg width="406" height="123" viewBox="0 0 406 123" fill="none" xmlns="http://www.w3.org/2000/svg">
<rect x="9" y="42" width="27" height="24" fill="#AFD1FF"/>
<path d="M65.2929 40.176L13.9972 71.4627C7.60674 75.3604 7.60672 84.6396 13.9972 88.5373L65.2928 119.824C68.4904 121.774 72.5096 121.774 75.7071 119.824L127.003 88.5373C133.393 84.6396 133.393 75.3604 127.003 71.4627L75.7071 40.176C72.5096 38.2257 68.4904 38.2257 65.2929 40.176Z" fill="#0B02AE"/>
<path d="M65.2929 25.176L13.9972 56.4627C7.60674 60.3604 7.60672 69.6396 13.9972 73.5373L65.2928 104.824C68.4904 106.774 72.5096 106.774 75.7071 104.824L127.003 73.5373C133.393 69.6396 133.393 60.3604 127.003 56.4627L75.7071 25.176C72.5096 23.2257 68.4904 23.2257 65.2929 25.176Z" fill="#3A8FFF" fill-opacity="0.5"/>
<path d="M65.2929 3.17599L13.9972 34.4627C7.60674 38.3604 7.60672 47.6396 13.9972 51.5373L65.2928 82.824C68.4904 84.7743 72.5096 84.7743 75.7071 82.824L127.003 51.5373C133.393 47.6396 133.393 38.3604 127.003 34.4627L75.7071 3.17599C72.5096 1.22573 68.4904 1.22573 65.2929 3.17599Z" fill="#AFD1FF"/>
<path d="M161.148 72.4922C160.18 71.7578 159.945 71.0156 160.445 70.2656L162.25 67.5469C162.844 66.6562 163.711 66.6094 164.852 67.4062C165.727 68.0156 166.867 68.6484 168.273 69.3047C169.695 69.9453 171.188 70.2656 172.75 70.2656C173.844 70.2656 174.898 70.1406 175.914 69.8906C176.93 69.6406 177.703 69.1562 178.234 68.4375C178.766 67.7188 179.031 66.8672 179.031 65.8828C179.031 65.1797 178.914 64.5625 178.68 64.0312C178.445 63.5 178.062 63.0625 177.531 62.7188C177 62.375 176.453 62.0859 175.891 61.8516C174.906 61.4453 173.664 61.0469 172.164 60.6562C170.68 60.25 169.211 59.7656 167.758 59.2031C166.461 58.7031 165.273 58.0156 164.195 57.1406C163.117 56.2656 162.281 55.2812 161.688 54.1875C161.094 53.0938 160.797 51.6328 160.797 49.8047C160.797 47.6328 161.5 45.7734 162.906 44.2266C164.312 42.6797 165.93 41.6875 167.758 41.25C169.586 40.8125 171.43 40.5938 173.289 40.5938C175.133 40.5938 177.031 40.875 178.984 41.4375C180.953 42 182.438 42.7031 183.438 43.5469C184.422 44.375 184.664 45.125 184.164 45.7969L182.266 48.3516C181.625 49.2266 180.766 49.2969 179.688 48.5625C179 48.0938 178.055 47.5703 176.852 46.9922C175.664 46.4141 174.422 46.125 173.125 46.125C172.203 46.125 171.352 46.2031 170.57 46.3594C169.805 46.5156 169.125 46.8906 168.531 47.4844C167.938 48.0781 167.641 48.8125 167.641 49.6875C167.641 50.5312 167.859 51.2188 168.297 51.75C168.734 52.2656 169.219 52.6562 169.75 52.9219C170.281 53.1719 170.82 53.3828 171.367 53.5547C173.055 54.1016 174.562 54.5859 175.891 55.0078C177.219 55.4141 178.445 55.8672 179.57 56.3672C181.133 57.0703 182.328 57.7734 183.156 58.4766C183.984 59.1797 184.664 60.1406 185.195 61.3594C185.742 62.5781 186.016 64.0312 186.016 65.7188C186.016 68.2188 185.219 70.2891 183.625 71.9297C182.031 73.5547 180.258 74.6016 178.305 75.0703C176.367 75.5547 174.477 75.7969 172.633 75.7969C169.914 75.7969 167.703 75.5312 166 75C164.297 74.4844 162.68 73.6484 161.148 72.4922ZM190.211 47.3906C189.039 47.3906 188.453 46.8828 188.453 45.8672V42.9141C188.453 41.8984 189.039 41.3906 190.211 41.3906H214.305C215.477 41.3906 216.062 41.8984 216.062 42.9141V45.8672C216.062 46.8828 215.477 47.3906 214.305 47.3906H205.68V73.7109C205.68 74.5703 205.289 75 204.508 75H200.008C199.227 75 198.836 74.5703 198.836 73.7109V47.3906H190.211ZM218.875 58.1953C218.875 52.8047 220.266 48.5234 223.047 45.3516C225.828 42.1797 229.797 40.5938 234.953 40.5938C240.109 40.5938 244.078 42.1797 246.859 45.3516C249.641 48.5234 251.031 52.8047 251.031 58.1953C251.031 63.5859 249.641 67.8672 246.859 71.0391C244.078 74.2109 240.109 75.7969 234.953 75.7969C229.797 75.7969 225.828 74.2109 223.047 71.0391C220.266 67.8672 218.875 63.5859 218.875 58.1953ZM226.188 58.1953C226.188 62.1016 226.883 65.0938 228.273 67.1719C229.68 69.2344 231.906 70.2656 234.953 70.2656C238 70.2656 240.219 69.2344 241.609 67.1719C243.016 65.0938 243.719 62.1016 243.719 58.1953C243.719 54.2891 243.016 51.3047 241.609 49.2422C240.219 47.1641 238 46.125 234.953 46.125C231.906 46.125 229.68 47.1641 228.273 49.2422C226.883 51.3047 226.188 54.2891 226.188 58.1953ZM255.062 58.1953C255.062 52.8047 256.43 48.5234 259.164 45.3516C261.898 42.1797 265.844 40.5938 271 40.5938C273.969 40.5938 276.484 41.0547 278.547 41.9766C280.609 42.8984 282.062 44.2344 282.906 45.9844C283.469 47.1406 283.375 47.9219 282.625 48.3281L279.812 49.8281C278.828 50.3594 278.016 50.0625 277.375 48.9375C276.969 48.2188 276.211 47.5703 275.102 46.9922C274.008 46.4141 272.719 46.125 271.234 46.125C267.953 46.125 265.656 47.1641 264.344 49.2422C263.031 51.3047 262.375 54.2891 262.375 58.1953C262.375 62.1016 263.031 65.0938 264.344 67.1719C265.656 69.2344 267.953 70.2656 271.234 70.2656C273 70.2656 274.484 69.8672 275.688 69.0703C276.906 68.2734 277.75 67.5156 278.219 66.7969C278.984 65.625 279.797 65.3281 280.656 65.9062L283.469 67.7812C284.234 68.2969 284.312 69.0781 283.703 70.125C282.797 71.6875 281.242 73.0234 279.039 74.1328C276.836 75.2422 274.156 75.7969 271 75.7969C265.922 75.7969 261.992 74.2109 259.211 71.0391C256.445 67.8672 255.062 63.5859 255.062 58.1953ZM291.672 75C290.578 75 290.031 74.4141 290.031 73.2422V43.1484C290.031 41.9766 290.578 41.3906 291.672 41.3906H295.234C296.328 41.3906 296.875 41.9766 296.875 43.1484V52.4766C296.875 53.4141 296.836 54.3516 296.758 55.2891H296.922L308.312 42.7734C309.156 41.8516 309.875 41.3906 310.469 41.3906H315.18C317.008 41.3906 317.305 42.0625 316.07 43.4062L305.406 55.0781L316.82 72.9844C317.68 74.3281 317.383 75 315.93 75H311.547C310.734 75 310.031 74.5391 309.438 73.6172L300.812 60.0938L296.875 64.5234V73.2422C296.875 74.4141 296.328 75 295.234 75H291.672ZM323.594 75C322.5 75 321.953 74.4141 321.953 73.2422V43.1484C321.953 41.9766 322.5 41.3906 323.594 41.3906H327.391C328.328 41.3906 328.797 41.9766 328.797 43.1484V69.1875H342.461C343.633 69.1875 344.219 69.6953 344.219 70.7109V73.4766C344.219 74.4922 343.633 75 342.461 75H323.594ZM341.453 43.4062C340.656 42.0625 341.023 41.3906 342.555 41.3906H346.656C347.469 41.3906 348.188 41.9297 348.812 43.0078L353.805 51.7031C353.945 51.9375 354.359 52.6719 355.047 53.9062C355.734 55.125 356.133 56.3125 356.242 57.4688H356.336C356.445 56.3125 356.844 55.125 357.531 53.9062C358.219 52.6719 358.633 51.9375 358.773 51.7031L363.766 43.0078C364.391 41.9297 365.109 41.3906 365.922 41.3906H370.023C371.555 41.3906 371.922 42.0625 371.125 43.4062L359.711 62.6953V73.7109C359.711 74.5703 359.164 75 358.07 75H354.508C353.414 75 352.867 74.5703 352.867 73.7109V62.6953L341.453 43.4062ZM376.516 75C375.422 75 374.875 74.4141 374.875 73.2422V43.1484C374.875 41.9766 375.422 41.3906 376.516 41.3906H379.984C381.328 41.3906 382.344 41.9375 383.031 43.0312L394.984 62.2266H395.148C395.07 61.2891 395.031 60.3516 395.031 59.4141V43.1484C395.031 41.9766 395.578 41.3906 396.672 41.3906H400.234C401.328 41.3906 401.875 41.9766 401.875 43.1484V73.2422C401.875 74.4141 401.328 75 400.234 75H397C395.656 75 394.641 74.4531 393.953 73.3594L381.766 53.8125H381.602C381.68 54.75 381.719 55.6875 381.719 56.625V73.2422C381.719 74.4141 381.172 75 380.078 75H376.516Z" fill="black"/>
</svg>
